grf
version=1
nRows=12
nColumns=37
inDegrees=no
endheader
time	ground_force_1_vx	ground_force_1_vy	ground_force_1_vz	ground_force_1_px	ground_force_1_py	ground_force_1_pz	ground_moment_1_mx	ground_moment_1_my	ground_moment_1_mz	ground_force_2_vx	ground_force_2_vy	ground_force_2_vz	ground_force_2_px	ground_force_2_py	ground_force_2_pz	ground_moment_2_mx	ground_moment_2_my	ground_moment_2_mz	ground_force_3_vx	ground_force_3_vy	ground_force_3_vz	ground_force_3_px	ground_force_3_py	ground_force_3_pz	ground_moment_3_mx	ground_moment_3_my	ground_moment_3_mz	ground_force_4_vx	ground_force_4_vy	ground_force_4_vz	ground_force_4_px	ground_force_4_py	ground_force_4_pz	ground_moment_4_mx	ground_moment_4_my	ground_moment_4_mz
      1.78000000	      0.00000000	     -0.00000000	      0.00000000	      0.00000000	      0.00000000	      0.00000000	      0.00000000	      0.00000000	      0.00000000	     -3.02725387	     73.83569336	   -545.49804688	   -300.92212211	  -1213.43657781	      0.00000000	      0.00000000	      0.00000000	  10440.21155312	      7.79270800	    -80.86711189	   -538.78179932	   -333.38864444	   -586.50596254	      0.00000000	      0.00000000	     -0.00000000	  -9354.47550502	      0.00000000	     -0.00000000	      0.00000000	      0.00000000	      0.00000000	      0.00000000	      0.00000000	      0.00000000	      0.00000000
      1.79000000	      0.00000000	     -0.00000000	      0.00000000	      0.00000000	      0.00000000	      0.00000000	      0.00000000	      0.00000000	      0.00000000	     -2.93776512	     73.48492432	   -545.80291748	   -300.57338393	  -1214.58111007	      0.00000000	      0.00000000	      0.00000000	  10604.89283181	      8.34254216	    -81.92022778	   -542.59631348	   -332.35013697	   -586.33057464	      0.00000000	      0.00000000	     -0.00000000	  -9456.47025006	      0.00000000	     -0.00000000	      0.00000000	      0.00000000	      0.00000000	      0.00000000	      0.00000000	      0.00000000	      0.00000000
      1.80000000	      0.00000000	     -0.00000000	      0.00000000	      0.00000000	      0.00000000	      0.00000000	      0.00000000	      0.00000000	      0.00000000	     -2.58710480	     73.30015564	   -546.12933350	   -300.30778954	  -1214.35223731	      0.00000000	      0.00000000	      0.00000000	  10609.23522773	      8.55860462	    -82.96837691	   -545.17687988	   -331.84928671	   -585.84767961	      0.00000000	      0.00000000	     -0.00000000	  -9440.81084648	      0.00000000	     -0.00000000	      0.00000000	      0.00000000	      0.00000000	      0.00000000	      0.00000000	      0.00000000	      0.00000000
      1.81000000	      0.00000000	     -0.00000000	      0.00000000	      0.00000000	      0.00000000	      0.00000000	      0.00000000	      0.00000000	      0.00000000	     -2.26368332	     73.61503601	   -549.11083984	   -299.74213486	  -1214.97483858	      0.00000000	      0.00000000	      0.00000000	  10557.26830504	      9.84265553	    -83.28735438	   -548.33428955	   -331.96436057	   -585.70924003	      0.00000000	      0.00000000	     -0.00000000	  -9474.55275368	      0.00000000	     -0.00000000	      0.00000000	      0.00000000	      0.00000000	      0.00000000	      0.00000000	      0.00000000	      0.00000000
      1.82000000	      0.00000000	     -0.00000000	      0.00000000	      0.00000000	      0.00000000	      0.00000000	      0.00000000	      0.00000000	      0.00000000	     -1.68111360	     73.78610992	   -550.22686768	   -299.52239477	  -1214.77905864	      0.00000000	      0.00000000	      0.00000000	  10476.15395177	     10.76712261	    -83.42206668	   -550.42864990	   -331.22613343	   -585.29885426	      0.00000000	      0.00000000	     -0.00000000	  -9552.03018302	      0.00000000	     -0.00000000	      0.00000000	      0.00000000	      0.00000000	      0.00000000	      0.00000000	      0.00000000	      0.00000000
      1.83000000	      0.00000000	     -0.00000000	      0.00000000	      0.00000000	      0.00000000	      0.00000000	      0.00000000	      0.00000000	      0.00000000	     -0.98131561	     74.50579834	   -553.07983398	   -298.32455676	  -1215.50700115	      0.00000000	      0.00000000	      0.00000000	  10505.42711855	     11.79852715	    -82.85048779	   -553.24011230	   -331.01912483	   -584.88969340	      0.00000000	      0.00000000	     -0.00000000	  -9590.18126599	      0.00000000	     -0.00000000	      0.00000000	      0.00000000	      0.00000000	      0.00000000	      0.00000000	      0.00000000	      0.00000000
      1.84000000	      0.00000000	     -0.00000000	      0.00000000	      0.00000000	      0.00000000	      0.00000000	      0.00000000	      0.00000000	      0.00000000	     -1.15973663	     74.77294922	   -555.71386719	   -299.04012635	  -1215.74550787	      0.00000000	      0.00000000	      0.00000000	  10755.38540482	     12.02281042	    -82.27414808	   -555.33557129	   -330.86767283	   -585.26393299	      0.00000000	      0.00000000	     -0.00000000	  -9709.71664705	      0.00000000	     -0.00000000	      0.00000000	      0.00000000	      0.00000000	      0.00000000	      0.00000000	      0.00000000	      0.00000000
      1.85000000	      0.00000000	     -0.00000000	      0.00000000	      0.00000000	      0.00000000	      0.00000000	      0.00000000	      0.00000000	      0.00000000	     -1.16746271	     73.96279144	   -557.77124023	   -297.73580219	  -1215.77870956	      0.00000000	      0.00000000	      0.00000000	  10658.07111641	     12.47176412	    -81.48986925	   -558.60113525	   -330.11456122	   -585.11549770	      0.00000000	      0.00000000	     -0.00000000	  -9844.72179527	      0.00000000	     -0.00000000	      0.00000000	      0.00000000	      0.00000000	      0.00000000	      0.00000000	      0.00000000	      0.00000000
      1.86000000	      0.00000000	     -0.00000000	      0.00000000	      0.00000000	      0.00000000	      0.00000000	      0.00000000	      0.00000000	      0.00000000	     -1.11113906	     74.59416962	   -562.16760254	   -297.31336443	  -1216.23333472	      0.00000000	      0.00000000	      0.00000000	  10968.76123084	     12.11177883	    -80.76192580	   -560.94470215	   -329.83500132	   -585.18833128	      0.00000000	     -0.00000000	     -0.00000000	  -9989.76270618	      0.00000000	     -0.00000000	      0.00000000	      0.00000000	      0.00000000	      0.00000000	      0.00000000	      0.00000000	      0.00000000
      1.87000000	      0.00000000	     -0.00000000	      0.00000000	      0.00000000	      0.00000000	      0.00000000	      0.00000000	      0.00000000	      0.00000000	     -1.20847332	     74.75564575	   -565.98724365	   -296.92968494	  -1215.93246825	      0.00000000	      0.00000000	      0.00000000	  11043.28723904	     11.13029453	    -79.45402624	   -562.64642334	   -328.79382730	   -585.00507678	      0.00000000	      0.00000000	     -0.00000000	  -9988.62025410	      0.00000000	     -0.00000000	      0.00000000	      0.00000000	      0.00000000	      0.00000000	      0.00000000	      0.00000000	      0.00000000
      1.88000000	      0.00000000	     -0.00000000	      0.00000000	      0.00000000	      0.00000000	      0.00000000	      0.00000000	      0.00000000	      0.00000000	     -1.70351315	     74.74638367	   -567.94702148	   -296.13983169	  -1216.58185900	      0.00000000	      0.00000000	      0.00000000	  10995.92764429	      9.80556184	    -78.38248529	   -563.18151855	   -328.22856564	   -585.23316447	      0.00000000	      0.00000000	     -0.00000000	 -10103.30242507	      0.00000000	     -0.00000000	      0.00000000	      0.00000000	      0.00000000	      0.00000000	      0.00000000	      0.00000000	      0.00000000
      1.89000000	      0.00000000	     -0.00000000	      0.00000000	      0.00000000	      0.00000000	      0.00000000	      0.00000000	      0.00000000	      0.00000000	     -3.00684023	     75.49345398	   -568.90338135	   -295.29069566	  -1216.26089708	      0.00000000	      0.00000000	      0.00000000	  11145.97806668	      8.20889563	    -76.94075084	   -560.38830566	   -327.37912280	   -585.59692017	      0.00000000	      0.00000000	     -0.00000000	 -10145.09701262	      0.00000000	     -0.00000000	      0.00000000	      0.00000000	      0.00000000	      0.00000000	      0.00000000	      0.00000000	      0.00000000
